<svg id="Capa_1" data-name="Capa 1" xmlns="http://www.w3.org/2000/svg" xmlns:xlink="http://www.w3.org/1999/xlink" viewBox="0 0 360 180"><defs><style>.cls-1{font-size:41.4px;fill:#161616;font-family:Poppins-SemiBold, Poppins;font-weight:700;}.cls-2{fill:url(#Degradado_sin_nombre_7);}.cls-3{fill:#fff;}</style><linearGradient id="Degradado_sin_nombre_7" x1="32.08" y1="95.44" x2="141.37" y2="95.44" gradientUnits="userSpaceOnUse"><stop offset="0" stop-color="#501899"/><stop offset="0.5" stop-color="#9228a9"/><stop offset="1" stop-color="#f300c0"/></linearGradient></defs><title>Mesa de trabajo 1</title><text class="cls-1" transform="translate(149.79 104.81)">Edia<tspan x="0" y="35.65">Solutions</tspan></text><path class="cls-2" d="M141.34,90c0,15.88,0,31.76,0,47.65,0,2.44-.73,3.12-3,3-3.54-.16-7.07.2-10.51-1.28a22.25,22.25,0,0,1-10.5-9.13,20.18,20.18,0,0,1-2.64-11.13c.09-9.71.29-19.38.26-29.1,0-.86.32-2.22-1-2.43-1.18-.19-1.41.87-2,1.59-2.22,2.82-4.54,5.56-6.78,8.36-2.43,3-4.7,6.21-7.25,9.14a15,15,0,0,1-23.59-.78c-.62-.81-1.18-1.64-1.92-2.52-.51-.61-.46-.94-1.29-.86s-.76,1.13-.77,1.56c0,6.67,0,13.35,0,20,0,8.77,0,17.55,0,26.32,0,2.25-.35,4.46-2.19,6.17-2.32,2.15-5.34,2.69-8,.93-6.52-4.38-13.29-8.35-19.87-12.61a18.6,18.6,0,0,1-7.49-10.54,23.41,23.41,0,0,1-.76-7.17q0-42.86,0-85.71c0-6.11,7.21-11.24,13.33-8.3,4.25,2,7.23,5.44,10.13,8.95s5.92,7.3,8.89,10.94q5.13,6.3,10.28,12.58c3.09,3.78,6.14,7.62,9.33,11.33,1.36,1.6,4.41,1.37,5.83-.59,3.61-5,7.72-9.6,11.57-14.4,3.32-4.15,6.85-8.14,10.14-12.33,3.79-4.82,7.52-9.74,12.08-13.89,6.53-5.94,14.78-3.76,17.42,4.24a7.19,7.19,0,0,1,.21,2.33Q141.35,66.15,141.34,90ZM37.44,92.7h0q0,17.08,0,34.15c0,6.09,2,11.06,7.56,14.35s11.24,7.09,16.81,10.71a2.23,2.23,0,0,0,2,.3c.88-.33.6-1.2.6-1.9l0-48.5c0-6.45-.08-12.9,0-19.35.09-4.73-1.45-8.52-5.57-11-2.29-1.38-4.65-2.62-7-3.89C47.23,65,43,62,40.52,57.05c-.43-.88-.76-2.12-2.1-1.69s-1,1.56-1,2.55Z"/><path class="cls-3" d="M37.44,92.7V57.91c0-1-.21-2.17,1-2.55s1.67.81,2.1,1.69c2.44,5,6.71,8,11.41,10.51,2.35,1.27,4.71,2.51,7,3.89,4.12,2.49,5.66,6.28,5.57,11-.11,6.45,0,12.9,0,19.35l0,48.5c0,.7.28,1.57-.6,1.9a2.23,2.23,0,0,1-2-.3c-5.57-3.62-11.09-7.34-16.81-10.71s-7.55-8.26-7.56-14.35q0-17.07,0-34.15Z"/></svg>